# xmcd
#
# Track frame offsets:
#	150
#	18990
#	46772
#	61877
#	79822
#	132360
#	157085
#	178915
#	200490
#	233535
#
# Disc length: 3348 seconds
#
# Revision: 0
# Processed by: cddbd v1.4PL0 Copyright (c) Steve Scherf et al.
# Submitted via: dBpowerAMP V4.0
#
DISCID=7e0d120a
DTITLE=Miki Haward - Miki Howard Live
DYEAR=1900
DGENRE=R&B
TTITLE0=Come Share My Love
TTITLE1=Imagination
TTITLE2=That's What Love Is
TTITLE3=You've Changed
TTITLE4=Baby Be Mine
TTITLE5=Blues
TTITLE6=Ain't Nobody Like You
TTITLE7=Ain't Nothing In The World
TTITLE8=Love Under New Management
TTITLE9=Until You Come Back To Me
EXTD=
EXTT0=
EXTT1=
EXTT2=
EXTT3=
EXTT4=
EXTT5=
EXTT6=
EXTT7=
EXTT8=
EXTT9=
PLAYORDER=
